<svg version="1.1" id="Layer_1" xmlns="http://www.w3.org/2000/svg" xmlns:xlink="http://www.w3.org/1999/xlink" x="0px" y="0px"
	 width="100%" viewBox="0 0 600 600" enable-background="new 0 0 600 600" xml:space="preserve">
<path fill="#000000" opacity="1.000000" stroke="none" 
	d="
M416.000000,601.000000 
	C277.362091,601.000000 139.224197,601.000000 1.043149,601.000000 
	C1.043149,401.070404 1.043149,201.140823 1.043149,1.105609 
	C200.887909,1.105609 400.775909,1.105609 600.831909,1.105609 
	C600.831909,200.999878 600.831909,400.999939 600.831909,601.000000 
	C539.474121,601.000000 477.987061,601.000000 416.000000,601.000000 
M343.962250,290.959045 
	C343.962250,290.959045 343.828888,290.858093 343.172668,291.004181 
	C343.220245,293.026215 339.418060,294.906738 343.563965,297.399902 
	C348.600739,303.494781 350.258514,310.100739 347.194427,317.737549 
	C346.039001,320.617279 345.727081,323.831329 344.984680,326.881744 
	C343.343597,333.624329 342.405640,340.670746 339.727936,346.976227 
	C338.230835,350.501587 333.841644,352.808563 330.725800,355.631653 
	C329.586243,356.664185 328.068115,357.398071 327.221039,358.615051 
	C320.970795,367.594849 314.809814,376.637787 308.725739,385.731079 
	C307.898041,386.968140 306.832550,388.942017 307.273163,389.984955 
	C309.948151,396.316742 310.094849,402.474121 306.560425,408.944763 
	C311.830078,409.532043 316.587006,410.031281 321.336029,410.596893 
	C340.837769,412.919434 360.303619,415.611847 379.848358,417.481598 
	C394.255829,418.859955 408.802429,418.780426 423.211639,420.145996 
	C429.382355,420.730804 435.623779,422.726044 441.356110,425.190125 
	C447.421570,427.797333 449.413513,433.776062 446.925934,438.801086 
	C443.032654,446.665741 443.933197,454.963074 446.512329,462.516449 
	C452.151581,479.031708 453.404297,495.583496 450.269440,512.632019 
	C449.992157,514.140076 450.032288,516.107239 450.781555,517.340820 
	C457.594513,528.557251 462.739899,540.347046 463.923401,554.556213 
	C470.224121,550.058838 476.063965,546.147949 481.537231,541.778015 
	C482.705719,540.845032 483.079803,538.180603 482.870972,536.426880 
	C482.533905,533.596130 481.855560,530.624512 480.540192,528.123169 
	C474.727692,517.069824 474.091797,505.157043 473.943390,493.059387 
	C473.875061,487.487122 473.389557,481.892853 472.683136,476.360901 
	C470.914948,462.514832 468.695831,448.724121 467.068085,434.863007 
	C465.588196,422.261078 459.940521,412.484192 448.976074,406.014893 
	C437.409332,399.190216 424.249359,397.735077 411.384613,396.203217 
	C397.991211,394.608459 384.387573,394.863464 370.902466,393.926514 
	C361.635040,393.282623 352.385895,392.176605 343.185608,390.874268 
	C340.027344,390.427216 338.149353,387.909576 339.860504,384.612335 
	C342.359070,379.797791 344.685120,374.705627 348.132782,370.615082 
	C353.522614,364.220154 358.820618,357.776825 361.470764,349.855103 
	C364.463287,340.910126 366.794952,331.714813 368.875946,322.506775 
	C369.876556,318.079071 369.943115,313.368866 369.897552,308.791931 
	C369.818817,300.878143 368.621490,292.918274 369.183868,285.070190 
	C369.852081,275.744385 371.358704,266.395599 373.457672,257.276733 
	C375.995178,246.252609 378.011414,235.469482 376.141632,224.007721 
	C373.674347,208.882858 368.856659,194.740067 360.920197,181.712952 
	C356.169739,173.915482 351.375427,165.966263 343.360748,160.937851 
	C334.667664,155.483841 325.930420,150.075363 316.973083,145.075851 
	C310.867340,141.667923 304.591858,138.213699 297.963684,136.170761 
	C286.777802,132.723007 275.015198,131.949783 263.414825,133.149521 
	C252.518494,134.276459 241.574158,135.996887 230.997147,138.774475 
	C224.175995,140.565796 217.885849,144.555710 211.523483,147.877747 
	C200.883148,153.433456 189.221252,157.068222 180.300308,165.851410 
	C174.182404,171.874832 169.720444,178.758636 165.909714,186.311447 
	C160.212784,197.602753 159.880310,210.149673 158.351273,222.142288 
	C156.003616,240.555679 156.270920,259.288727 154.833328,277.839996 
	C154.385178,283.623169 152.016113,289.258118 150.519989,294.959229 
	C149.016113,300.689911 146.763260,306.339752 146.144485,312.163757 
	C144.693146,325.824097 148.041763,339.001587 151.562973,352.087067 
	C153.046600,357.600586 154.613922,363.334808 150.880341,368.455353 
	C148.085907,372.287872 144.576950,375.602448 141.357010,379.121002 
	C135.257828,385.785889 127.076141,388.522797 118.649750,389.860962 
	C104.998817,392.028839 91.193611,393.212769 77.503624,395.163574 
	C75.842758,395.400269 73.379028,397.682556 73.202545,399.234558 
	C72.644691,404.140259 72.996620,409.149384 72.996620,414.538635 
	C78.719620,415.009338 84.186676,416.174683 89.532326,415.763123 
	C104.923553,414.578217 120.290421,412.953796 135.608856,411.038177 
	C139.177429,410.591949 143.590759,409.234863 145.776276,406.706879 
	C155.850098,395.054443 167.130219,384.823578 179.217453,375.361725 
	C180.377396,374.453705 180.728210,371.980103 180.706131,370.242828 
	C180.683823,368.487335 179.730179,366.743713 179.456451,364.619751 
	C179.067352,364.021698 178.678253,363.423615 178.053650,362.168488 
	C177.470596,360.904236 176.887543,359.640015 176.487015,357.703033 
	C175.839920,356.048096 175.192810,354.393158 174.324860,351.977478 
	C173.698059,349.436493 173.071259,346.895477 172.698959,343.791931 
	C172.328949,343.103943 171.958939,342.415985 171.292679,341.046722 
	C170.893814,339.363586 170.494965,337.680420 170.405472,335.334290 
	C170.103531,332.804535 169.801590,330.274750 169.169113,327.133575 
	C168.142426,325.088104 167.115753,323.042664 166.395645,320.302643 
	C166.725357,317.405060 167.055054,314.507477 167.709000,310.971649 
	C168.914093,308.377808 170.119202,305.783936 171.921066,302.967285 
	C172.106705,302.189056 172.292358,301.410828 172.781799,300.015594 
	C174.047318,298.097351 175.312836,296.179108 177.013367,294.091949 
	C177.041595,293.394196 177.069824,292.696411 177.163376,291.242493 
	C177.367081,290.252411 177.570801,289.262360 178.161194,288.043793 
	C178.141434,287.362000 178.121674,286.680206 178.166595,285.395172 
	C178.231216,284.996155 178.295837,284.597107 178.823730,284.102173 
	C178.726120,283.316956 178.628510,282.531708 178.369247,281.067566 
	C178.264709,280.377716 178.160156,279.687866 178.363464,278.678314 
	C178.142242,278.024902 177.921021,277.371521 177.500839,275.886902 
	C177.336807,273.591156 177.172775,271.295410 177.335907,268.443542 
	C177.242966,266.962311 177.150024,265.481049 177.170502,263.309113 
	C177.347839,262.632324 177.525177,261.955536 178.154205,260.906342 
	C178.152802,259.603394 178.151398,258.300476 178.162216,256.330200 
	C178.148041,255.885620 178.133865,255.441025 178.432968,254.648422 
	C178.101852,254.020157 177.770752,253.391891 177.133774,252.152039 
	C176.902924,250.844299 176.672073,249.536575 177.064148,247.891495 
	C178.724472,246.945892 180.384811,246.000275 182.255600,244.542496 
	C182.262619,244.358047 182.269623,244.173599 182.736176,243.355637 
	C182.320145,240.152664 181.904114,236.949677 181.341568,233.171936 
	C181.301636,232.778748 181.261719,232.385574 181.655197,231.355179 
	C181.357422,224.817825 179.298508,218.048553 184.248428,212.174713 
	C184.433762,211.954773 183.447403,210.747437 183.225159,209.331100 
	C183.306961,208.633270 183.388763,207.935425 184.049942,206.882523 
	C184.496231,203.288651 187.704407,199.998428 184.890244,195.927567 
	C184.450134,195.290894 186.308838,192.667847 187.544830,191.388702 
	C188.638794,190.256577 191.043915,190.068695 191.656738,188.852509 
	C193.834412,184.530670 197.003403,183.509750 201.242767,185.300842 
	C202.973419,177.150528 203.140472,177.008774 211.214218,175.444351 
	C214.396179,174.827805 217.602966,174.271240 220.710327,173.380096 
	C221.623428,173.118225 222.234131,171.801941 223.721985,170.928970 
	C224.157333,170.385437 224.592667,169.841888 225.767365,169.437698 
	C226.491150,169.636673 227.214935,169.835648 227.925034,170.761673 
	C228.756012,172.374542 229.586975,173.987427 230.417953,175.600296 
	C230.839218,175.458252 231.260468,175.316208 231.681717,175.174164 
	C231.499878,174.047363 231.318024,172.920547 231.785690,171.752960 
	C232.337097,169.818802 232.888489,167.884644 234.185989,165.970398 
	C234.439362,165.381485 235.060715,164.601318 234.873611,164.241333 
	C234.407059,163.343689 233.572876,162.637100 232.970596,161.102722 
	C238.164200,156.993729 244.251450,156.299057 250.583008,156.402695 
	C252.717194,156.437637 254.856140,156.180756 257.571899,156.300705 
	C261.500305,155.650131 265.428741,154.999557 269.999481,154.452072 
	C270.863739,154.444336 271.727997,154.436600 273.006287,154.875412 
	C273.736450,155.081787 274.466583,155.288162 275.746429,155.700790 
	C276.131897,155.663315 276.517365,155.625854 277.575958,155.815598 
	C278.721802,155.573227 279.867676,155.330872 281.625153,155.373871 
	C282.069733,155.376709 282.514343,155.379547 283.478424,155.852249 
	C290.029968,156.229614 295.847748,158.397079 301.125427,162.395844 
	C303.128326,163.913376 305.816223,164.526764 308.576294,166.119995 
	C310.334534,167.545502 312.092804,168.970993 314.053772,171.066483 
	C316.916046,177.565292 322.513733,179.950409 329.033356,181.742905 
	C330.397003,182.900284 331.760651,184.057663 333.390259,185.440765 
	C331.783997,186.433655 330.363556,187.311676 329.702606,187.720230 
	C331.340363,189.681671 332.799927,191.487259 334.326172,193.234558 
	C335.157684,194.186493 336.102325,195.039612 337.582123,196.226868 
	C338.411682,196.465057 339.241211,196.703247 340.070740,197.662109 
	C338.484070,199.058487 336.897369,200.454880 335.657196,201.546310 
	C338.441803,203.503235 340.841675,205.189789 343.381317,206.974564 
	C342.196716,210.357208 342.196716,210.357208 348.555634,213.244949 
	C349.252808,213.551056 349.949982,213.857162 350.897675,214.501587 
	C350.897675,214.501587 351.107727,214.866379 351.063568,215.628281 
	C350.965393,220.218292 349.374573,224.836594 351.326630,229.387756 
	C352.285370,231.623032 353.241119,233.859589 354.105560,236.868881 
	C353.588501,240.912857 353.071442,244.956833 352.489288,249.552292 
	C352.485748,249.922455 352.482208,250.292633 351.988678,251.020889 
	C351.577789,252.686539 351.166931,254.352173 350.584106,256.669556 
	C350.448944,257.328491 350.313782,257.987457 349.805695,259.083130 
	C349.819366,259.820831 349.833069,260.558533 349.642639,262.118805 
	C349.288971,264.647034 348.935303,267.175293 348.071198,270.108612 
	C347.979614,271.174103 347.888031,272.239594 347.644257,273.974915 
	C347.550842,274.655090 347.457428,275.335266 346.904480,276.429230 
	C346.881165,277.623993 346.857849,278.818756 346.690399,280.664124 
	C346.589325,281.322693 346.488251,281.981232 345.960724,282.847839 
	C345.956909,283.566589 345.953064,284.285309 345.850464,285.572327 
	C345.759674,285.945953 345.668915,286.319611 345.030243,287.053619 
	C344.638184,288.312897 344.246124,289.572174 343.962250,290.959045 
z"/>
<path fill="#FDFDFD" opacity="1.000000" stroke="none" 
	d="
M170.096100,335.997284 
	C170.494965,337.680420 170.893814,339.363586 171.348480,341.671204 
	C171.750992,342.981995 172.097717,343.668243 172.444427,344.354492 
	C173.071259,346.895477 173.698059,349.436493 174.327927,352.688599 
	C174.988831,355.058380 175.646667,356.717072 176.304504,358.375763 
	C176.887543,359.640015 177.470596,360.904236 178.112671,362.807190 
	C178.509293,363.962250 178.846893,364.478546 179.184509,364.994873 
	C179.730179,366.743713 180.683823,368.487335 180.706131,370.242828 
	C180.728210,371.980103 180.377396,374.453705 179.217453,375.361725 
	C167.130219,384.823578 155.850098,395.054443 145.776276,406.706879 
	C143.590759,409.234863 139.177429,410.591949 135.608856,411.038177 
	C120.290421,412.953796 104.923553,414.578217 89.532326,415.763123 
	C84.186676,416.174683 78.719620,415.009338 72.996620,414.538635 
	C72.996620,409.149384 72.644691,404.140259 73.202545,399.234558 
	C73.379028,397.682556 75.842758,395.400269 77.503624,395.163574 
	C91.193611,393.212769 104.998817,392.028839 118.649750,389.860962 
	C127.076141,388.522797 135.257828,385.785889 141.357010,379.121002 
	C144.576950,375.602448 148.085907,372.287872 150.880341,368.455353 
	C154.613922,363.334808 153.046600,357.600586 151.562973,352.087067 
	C148.041763,339.001587 144.693146,325.824097 146.144485,312.163757 
	C146.763260,306.339752 149.016113,300.689911 150.519989,294.959229 
	C152.016113,289.258118 154.385178,283.623169 154.833328,277.839996 
	C156.270920,259.288727 156.003616,240.555679 158.351273,222.142288 
	C159.880310,210.149673 160.212784,197.602753 165.909714,186.311447 
	C169.720444,178.758636 174.182404,171.874832 180.300308,165.851410 
	C189.221252,157.068222 200.883148,153.433456 211.523483,147.877747 
	C217.885849,144.555710 224.175995,140.565796 230.997147,138.774475 
	C241.574158,135.996887 252.518494,134.276459 263.414825,133.149521 
	C275.015198,131.949783 286.777802,132.723007 297.963684,136.170761 
	C304.591858,138.213699 310.867340,141.667923 316.973083,145.075851 
	C325.930420,150.075363 334.667664,155.483841 343.360748,160.937851 
	C351.375427,165.966263 356.169739,173.915482 360.920197,181.712952 
	C368.856659,194.740067 373.674347,208.882858 376.141632,224.007721 
	C378.011414,235.469482 375.995178,246.252609 373.457672,257.276733 
	C371.358704,266.395599 369.852081,275.744385 369.183868,285.070190 
	C368.621490,292.918274 369.818817,300.878143 369.897552,308.791931 
	C369.943115,313.368866 369.876556,318.079071 368.875946,322.506775 
	C366.794952,331.714813 364.463287,340.910126 361.470764,349.855103 
	C358.820618,357.776825 353.522614,364.220154 348.132782,370.615082 
	C344.685120,374.705627 342.359070,379.797791 339.860504,384.612335 
	C338.149353,387.909576 340.027344,390.427216 343.185608,390.874268 
	C352.385895,392.176605 361.635040,393.282623 370.902466,393.926514 
	C384.387573,394.863464 397.991211,394.608459 411.384613,396.203217 
	C424.249359,397.735077 437.409332,399.190216 448.976074,406.014893 
	C459.940521,412.484192 465.588196,422.261078 467.068085,434.863007 
	C468.695831,448.724121 470.914948,462.514832 472.683136,476.360901 
	C473.389557,481.892853 473.875061,487.487122 473.943390,493.059387 
	C474.091797,505.157043 474.727692,517.069824 480.540192,528.123169 
	C481.855560,530.624512 482.533905,533.596130 482.870972,536.426880 
	C483.079803,538.180603 482.705719,540.845032 481.537231,541.778015 
	C476.063965,546.147949 470.224121,550.058838 463.923401,554.556213 
	C462.739899,540.347046 457.594513,528.557251 450.781555,517.340820 
	C450.032288,516.107239 449.992157,514.140076 450.269440,512.632019 
	C453.404297,495.583496 452.151581,479.031708 446.512329,462.516449 
	C443.933197,454.963074 443.032654,446.665741 446.925934,438.801086 
	C449.413513,433.776062 447.421570,427.797333 441.356110,425.190125 
	C435.623779,422.726044 429.382355,420.730804 423.211639,420.145996 
	C408.802429,418.780426 394.255829,418.859955 379.848358,417.481598 
	C360.303619,415.611847 340.837769,412.919434 321.336029,410.596893 
	C316.587006,410.031281 311.830078,409.532043 306.560425,408.944763 
	C310.094849,402.474121 309.948151,396.316742 307.273163,389.984955 
	C306.832550,388.942017 307.898041,386.968140 308.725739,385.731079 
	C314.809814,376.637787 320.970795,367.594849 327.221039,358.615051 
	C328.068115,357.398071 329.586243,356.664185 330.725800,355.631653 
	C333.841644,352.808563 338.230835,350.501587 339.727936,346.976227 
	C342.405640,340.670746 343.343597,333.624329 344.984680,326.881744 
	C345.727081,323.831329 346.039001,320.617279 347.194427,317.737549 
	C350.258514,310.100739 348.600739,303.494781 343.194336,296.829681 
	C343.159424,294.459015 343.494171,292.658539 343.828888,290.858093 
	C343.828888,290.858093 343.962250,290.959045 344.285675,290.857422 
	C344.932098,289.401581 345.255127,288.047424 345.578156,286.693237 
	C345.668915,286.319611 345.759674,285.945953 346.126343,285.041534 
	C346.397186,283.887085 346.392181,283.263458 346.387146,282.639801 
	C346.488251,281.981232 346.589325,281.322693 346.992126,280.126770 
	C347.317230,278.398071 347.340637,277.206757 347.364014,276.015442 
	C347.457428,275.335266 347.550842,274.655090 347.977600,273.421326 
	C348.401154,271.812988 348.491394,270.758270 348.581635,269.703522 
	C348.935303,267.175293 349.288971,264.647034 349.947693,261.499146 
	C350.228027,260.135132 350.203339,259.390778 350.178589,258.646423 
	C350.313782,257.987457 350.448944,257.328491 350.947815,256.104950 
	C351.700562,253.914490 352.089630,252.288651 352.478668,250.662796 
	C352.482208,250.292633 352.485748,249.922455 352.864258,249.132095 
	C354.493988,244.475525 355.748779,240.239136 357.001801,236.001373 
	C357.000000,236.000000 357.003082,236.003983 357.389404,235.978485 
	C357.809265,233.968765 357.842804,231.984558 357.869263,229.624908 
	C357.234894,227.441452 356.777679,225.550308 355.943207,223.843643 
	C354.451324,220.792572 352.731995,217.852722 351.107727,214.866379 
	C351.107727,214.866379 350.897675,214.501587 350.909668,213.987442 
	C350.988220,212.990814 351.054779,212.508347 351.232056,211.617508 
	C350.868195,208.824966 350.393646,206.440796 349.970856,203.684967 
	C347.628754,200.006485 345.234894,196.699661 342.768188,192.951645 
	C343.401398,187.210068 341.417419,182.696671 337.958008,179.008560 
	C335.650909,176.548920 332.671143,174.294205 328.665558,177.263367 
	C323.484375,174.937042 318.667725,172.666763 313.851044,170.396484 
	C312.092804,168.970993 310.334534,167.545502 308.353394,165.502731 
	C302.351562,155.774231 294.029449,151.724350 283.303986,152.538208 
	C284.973816,152.754532 286.643646,152.970871 288.757172,153.244675 
	C286.471588,154.087326 284.715271,154.734848 282.958923,155.382385 
	C282.514343,155.379547 282.069733,155.376709 281.154419,154.975830 
	C279.423431,154.914642 278.163116,155.251511 276.902832,155.588379 
	C276.517365,155.625854 276.131897,155.663315 275.492615,155.334244 
	C275.144928,154.633179 275.051025,154.298645 275.178040,153.941223 
	C275.661713,153.825928 275.924408,153.733505 276.187103,153.641083 
	C276.098206,153.534821 275.940704,153.329514 275.930420,153.336655 
	C275.616394,153.554276 275.316833,153.792740 274.595642,153.996887 
	C273.648224,154.120148 273.120239,154.274506 272.592255,154.428864 
	C271.727997,154.436600 270.863739,154.444336 269.293579,154.217255 
	C264.455597,153.181015 260.486053,153.288040 256.992920,156.057251 
	C254.856140,156.180756 252.717194,156.437637 250.583008,156.402695 
	C244.251450,156.299057 238.164200,156.993729 232.553604,161.520416 
	C230.766632,162.334976 229.396667,162.731842 227.758224,163.050598 
	C226.859299,162.855469 225.960754,162.411530 225.641190,162.673615 
	C223.285049,164.605774 221.044434,166.678802 218.810272,168.790863 
	C218.853073,168.874252 218.691513,168.779190 218.351440,168.832214 
	C216.897598,168.885239 215.783813,168.885239 214.696030,168.885239 
	C212.951523,173.725586 208.719162,175.644440 203.398941,173.896118 
	C200.598572,172.975861 198.630310,172.979126 196.937820,176.090561 
	C194.580017,180.425049 191.669022,184.480316 188.756470,188.481613 
	C187.430664,190.303055 184.436203,191.514633 184.112823,193.341629 
	C183.311386,197.869659 183.612442,202.592819 183.470581,207.237595 
	C183.388763,207.935425 183.306961,208.633270 182.798523,209.700226 
	C181.593933,211.045380 180.815964,212.021393 179.945770,213.242157 
	C179.593994,213.509094 179.334473,213.531235 179.074921,213.553375 
	C179.105728,213.498932 179.136536,213.444473 179.167328,213.390015 
	C179.454727,213.592041 179.742096,213.794067 180.296387,214.361176 
	C178.170944,220.581253 179.035507,226.312027 181.221802,231.992386 
	C181.261719,232.385574 181.301636,232.778748 181.301392,233.907532 
	C181.599670,237.758484 181.938141,240.873810 182.276611,243.989151 
	C182.269623,244.173599 182.262619,244.358047 181.769806,244.821381 
	C179.669754,246.143127 178.055496,247.185989 176.441238,248.228836 
	C176.672073,249.536575 176.902924,250.844299 177.210083,252.759766 
	C177.564148,253.910461 177.841919,254.453461 178.119690,254.996445 
	C178.133865,255.441025 178.148041,255.885620 177.953583,256.974182 
	C177.730804,258.838348 177.716660,260.058533 177.702515,261.278748 
	C177.525177,261.955536 177.347839,262.632324 176.886963,263.902466 
	C176.738525,265.997131 176.873642,267.498383 177.008759,268.999664 
	C177.172775,271.295410 177.336807,273.591156 177.457550,276.584595 
	C177.628052,277.854187 177.841827,278.426086 178.055603,278.998016 
	C178.160156,279.687866 178.264709,280.377716 178.286469,281.799988 
	C178.255951,283.087646 178.308197,283.642853 178.360458,284.198090 
	C178.295837,284.597107 178.231216,284.996155 177.934265,285.935913 
	C177.726151,287.075195 177.750336,287.673737 177.774521,288.272278 
	C177.570801,289.262360 177.367081,290.252411 176.946411,291.866699 
	C176.679077,293.080872 176.628708,293.670837 176.578339,294.260834 
	C175.312836,296.179108 174.047318,298.097351 172.368195,300.476257 
	C171.744476,301.687958 171.534393,302.439026 171.324310,303.190094 
	C170.119202,305.783936 168.914093,308.377808 167.276489,311.506470 
	C166.592346,315.026611 166.340698,318.011902 166.089066,320.997192 
	C167.115753,323.042664 168.142426,325.088104 169.280655,327.874695 
	C169.626831,331.076294 169.861465,333.536774 170.096100,335.997284 
z"/>
<path fill="#6F6F6F" opacity="1.000000" stroke="none" 
	d="
M183.760254,207.060059 
	C183.612442,202.592819 183.311386,197.869659 184.112823,193.341629 
	C184.436203,191.514633 187.430664,190.303055 188.756470,188.481613 
	C191.669022,184.480316 194.580017,180.425049 196.937820,176.090561 
	C198.630310,172.979126 200.598572,172.975861 203.398941,173.896118 
	C208.719162,175.644440 212.951523,173.725586 214.696030,168.885239 
	C215.783813,168.885239 216.897598,168.885239 218.467987,169.128876 
	C219.360992,169.735458 219.797394,170.098419 220.233795,170.461380 
	C220.390213,170.222626 220.546631,169.983871 220.703033,169.745117 
	C220.057846,169.399246 219.412643,169.053375 218.767456,168.707489 
	C221.044434,166.678802 223.285049,164.605774 225.641190,162.673615 
	C225.960754,162.411530 226.859299,162.855469 227.738892,163.395264 
	C229.805313,164.528854 231.622604,165.239685 233.439911,165.950500 
	C232.888489,167.884644 232.337097,169.818802 231.457886,171.589966 
	C230.066299,170.962845 229.002518,170.498734 227.938721,170.034622 
	C227.214935,169.835648 226.491150,169.636673 225.463257,169.077728 
	C224.812576,167.963821 224.465988,167.209869 224.119415,166.455933 
	C223.830536,166.556061 223.541656,166.656189 223.252777,166.756317 
	C223.162994,168.160507 223.073212,169.564697 222.983429,170.968887 
	C222.234131,171.801941 221.623428,173.118225 220.710327,173.380096 
	C217.602966,174.271240 214.396179,174.827805 211.214218,175.444351 
	C203.140472,177.008774 202.973419,177.150528 201.242767,185.300842 
	C197.003403,183.509750 193.834412,184.530670 191.656738,188.852509 
	C191.043915,190.068695 188.638794,190.256577 187.544830,191.388702 
	C186.308838,192.667847 184.450134,195.290894 184.890244,195.927567 
	C187.704407,199.998428 184.496231,203.288651 183.760254,207.060059 
M201.027817,175.500565 
	C201.216721,175.629562 201.405624,175.758545 201.594528,175.887527 
	C201.565247,175.600723 201.535965,175.313919 201.027817,175.500565 
z"/>
<path fill="#7C7C7C" opacity="1.000000" stroke="none" 
	d="
M329.030060,177.319443 
	C332.671143,174.294205 335.650909,176.548920 337.958008,179.008560 
	C341.417419,182.696671 343.401398,187.210068 342.701660,193.285126 
	C340.803986,194.685623 338.899963,195.311478 336.995941,195.937317 
	C336.102325,195.039612 335.157684,194.186493 334.326172,193.234558 
	C332.799927,191.487259 331.340363,189.681671 329.702606,187.720230 
	C330.363556,187.311676 331.783997,186.433655 333.390259,185.440765 
	C331.760651,184.057663 330.397003,182.900284 329.057251,181.004883 
	C329.064148,179.284378 329.047119,178.301910 329.030060,177.319443 
z"/>
<path fill="#444444" opacity="1.000000" stroke="none" 
	d="
M349.919098,204.056610 
	C350.393646,206.440796 350.868195,208.824966 350.896851,211.631653 
	C349.660736,212.330902 348.870575,212.607666 348.080383,212.884430 
	C342.196716,210.357208 342.196716,210.357208 343.381317,206.974564 
	C340.841675,205.189789 338.441803,203.503235 335.657196,201.546310 
	C336.897369,200.454880 338.484070,199.058487 340.407104,197.407562 
	C342.574738,198.637100 344.376312,200.160049 346.248169,201.591080 
	C347.416992,202.484634 348.691833,203.239502 349.919098,204.056610 
z"/>
<path fill="#ABABAB" opacity="1.000000" stroke="none" 
	d="
M283.218689,155.617310 
	C284.715271,154.734848 286.471588,154.087326 288.757172,153.244675 
	C286.643646,152.970871 284.973816,152.754532 283.303986,152.538208 
	C294.029449,151.724350 302.351562,155.774231 308.161224,165.218842 
	C305.816223,164.526764 303.128326,163.913376 301.125427,162.395844 
	C295.847748,158.397079 290.029968,156.229614 283.218689,155.617310 
z"/>
<path fill="#5A5A5A" opacity="1.000000" stroke="none" 
	d="
M351.085632,215.247330 
	C352.731995,217.852722 354.451324,220.792572 355.943207,223.843643 
	C356.777679,225.550308 357.234894,227.441452 357.488953,229.593048 
	C357.078217,231.959076 357.040649,233.981537 357.003082,236.003983 
	C357.003082,236.003983 357.000000,236.000000 356.650574,235.994537 
	C355.600159,236.024582 354.899170,236.060059 354.198181,236.095551 
	C353.241119,233.859589 352.285370,231.623032 351.326630,229.387756 
	C349.374573,224.836594 350.965393,220.218292 351.085632,215.247330 
M354.834534,229.194687 
	C354.739227,228.944122 354.643921,228.693558 354.548615,228.442993 
	C354.528259,228.779648 354.507904,229.116318 354.834534,229.194687 
z"/>
<path fill="#4D4D4D" opacity="1.000000" stroke="none" 
	d="
M328.665558,177.263367 
	C329.047119,178.301910 329.064148,179.284378 329.039246,180.634995 
	C322.513733,179.950409 316.916046,177.565292 313.952393,170.731476 
	C318.667725,172.666763 323.484375,174.937042 328.665558,177.263367 
z"/>
<path fill="#6F6F6F" opacity="1.000000" stroke="none" 
	d="
M181.438507,231.673782 
	C179.035507,226.312027 178.170944,220.581253 180.282654,214.365265 
	C180.001999,214.004272 179.981781,214.027481 180.378006,214.123199 
	C180.508896,213.799210 180.243561,213.379486 179.990723,212.973709 
	C180.003250,212.987656 180.037994,212.997391 180.037994,212.997391 
	C180.815964,212.021393 181.593933,211.045380 182.689484,210.034805 
	C183.447403,210.747437 184.433762,211.954773 184.248428,212.174713 
	C179.298508,218.048553 181.357422,224.817825 181.438507,231.673782 
z"/>
<path fill="#919191" opacity="1.000000" stroke="none" 
	d="
M349.970856,203.684967 
	C348.691833,203.239502 347.416992,202.484634 346.248169,201.591080 
	C344.376312,200.160049 342.574738,198.637100 340.407104,197.047211 
	C339.241211,196.703247 338.411682,196.465057 337.289032,196.082092 
	C338.899963,195.311478 340.803986,194.685623 342.774536,193.726318 
	C345.234894,196.699661 347.628754,200.006485 349.970856,203.684967 
z"/>
<path fill="#8C8C8C" opacity="1.000000" stroke="none" 
	d="
M354.151886,236.482208 
	C354.899170,236.060059 355.600159,236.024582 356.652344,235.995911 
	C355.748779,240.239136 354.493988,244.475525 352.896790,248.856354 
	C353.071442,244.956833 353.588501,240.912857 354.151886,236.482208 
z"/>
<path fill="#545454" opacity="1.000000" stroke="none" 
	d="
M233.812958,165.960449 
	C231.622604,165.239685 229.805313,164.528854 228.007355,163.473373 
	C229.396667,162.731842 230.766632,162.334976 232.511429,161.895966 
	C233.572876,162.637100 234.407059,163.343689 234.873611,164.241333 
	C235.060715,164.601318 234.439362,165.381485 233.812958,165.960449 
z"/>
<path fill="#ABABAB" opacity="1.000000" stroke="none" 
	d="
M257.282410,156.178986 
	C260.486053,153.288040 264.455597,153.181015 268.972412,154.165726 
	C265.428741,154.999557 261.500305,155.650131 257.282410,156.178986 
z"/>
<path fill="#6F6F6F" opacity="1.000000" stroke="none" 
	d="
M182.506393,243.672394 
	C181.938141,240.873810 181.599670,237.758484 181.374634,234.194916 
	C181.904114,236.949677 182.320145,240.152664 182.506393,243.672394 
z"/>
<path fill="#545454" opacity="1.000000" stroke="none" 
	d="
M227.931885,170.398148 
	C229.002518,170.498734 230.066299,170.962845 231.133133,171.610352 
	C231.318024,172.920547 231.499878,174.047363 231.681717,175.174164 
	C231.260468,175.316208 230.839218,175.458252 230.417953,175.600296 
	C229.586975,173.987427 228.756012,172.374542 227.931885,170.398148 
z"/>
<path fill="#6F6F6F" opacity="1.000000" stroke="none" 
	d="
M166.242355,320.649902 
	C166.340698,318.011902 166.592346,315.026611 167.114380,311.825623 
	C167.055054,314.507477 166.725357,317.405060 166.242355,320.649902 
z"/>
<path fill="#6F6F6F" opacity="1.000000" stroke="none" 
	d="
M170.250778,335.665771 
	C169.861465,333.536774 169.626831,331.076294 169.445923,328.180389 
	C169.801590,330.274750 170.103531,332.804535 170.250778,335.665771 
z"/>
<path fill="#6F6F6F" opacity="1.000000" stroke="none" 
	d="
M176.752686,248.060165 
	C178.055496,247.185989 179.669754,246.143127 181.664566,245.077454 
	C180.384811,246.000275 178.724472,246.945892 176.752686,248.060165 
z"/>
<path fill="#8C8C8C" opacity="1.000000" stroke="none" 
	d="
M343.500793,290.931152 
	C343.494171,292.658539 343.159424,294.459015 342.887451,296.658142 
	C339.418060,294.906738 343.220245,293.026215 343.500793,290.931152 
z"/>
<path fill="#6F6F6F" opacity="1.000000" stroke="none" 
	d="
M177.172333,268.721619 
	C176.873642,267.498383 176.738525,265.997131 176.830261,264.247833 
	C177.150024,265.481049 177.242966,266.962311 177.172333,268.721619 
z"/>
<path fill="#545454" opacity="1.000000" stroke="none" 
	d="
M223.352707,170.948929 
	C223.073212,169.564697 223.162994,168.160507 223.252777,166.756317 
	C223.541656,166.656189 223.830536,166.556061 224.119415,166.455933 
	C224.465988,167.209869 224.812576,167.963821 225.093567,169.008057 
	C224.592667,169.841888 224.157333,170.385437 223.352707,170.948929 
z"/>
<path fill="#6F6F6F" opacity="1.000000" stroke="none" 
	d="
M176.395752,358.039398 
	C175.646667,356.717072 174.988831,355.058380 174.438354,353.068970 
	C175.192810,354.393158 175.839920,356.048096 176.395752,358.039398 
z"/>
<path fill="#8C8C8C" opacity="1.000000" stroke="none" 
	d="
M352.233673,250.841843 
	C352.089630,252.288651 351.700562,253.914490 351.033783,255.779083 
	C351.166931,254.352173 351.577789,252.686539 352.233673,250.841843 
z"/>
<path fill="#8C8C8C" opacity="1.000000" stroke="none" 
	d="
M345.304199,286.873413 
	C345.255127,288.047424 344.932098,289.401581 344.231567,290.793640 
	C344.246124,289.572174 344.638184,288.312897 345.304199,286.873413 
z"/>
<path fill="#8C8C8C" opacity="1.000000" stroke="none" 
	d="
M347.134247,276.222351 
	C347.340637,277.206757 347.317230,278.398071 347.064178,279.801453 
	C346.857849,278.818756 346.881165,277.623993 347.134247,276.222351 
z"/>
<path fill="#6F6F6F" opacity="1.000000" stroke="none" 
	d="
M177.928360,261.092529 
	C177.716660,260.058533 177.730804,258.838348 177.947464,257.307831 
	C178.151398,258.300476 178.152802,259.603394 177.928360,261.092529 
z"/>
<path fill="#ABABAB" opacity="1.000000" stroke="none" 
	d="
M277.239380,155.701996 
	C278.163116,155.251511 279.423431,154.914642 280.848633,154.833130 
	C279.867676,155.330872 278.721802,155.573227 277.239380,155.701996 
z"/>
<path fill="#8C8C8C" opacity="1.000000" stroke="none" 
	d="
M348.326416,269.906067 
	C348.491394,270.758270 348.401154,271.812988 348.053711,273.086426 
	C347.888031,272.239594 347.979614,271.174103 348.326416,269.906067 
z"/>
<path fill="#5A5A5A" opacity="1.000000" stroke="none" 
	d="
M348.317993,213.064682 
	C348.870575,212.607666 349.660736,212.330902 350.786133,212.040009 
	C351.054779,212.508347 350.988220,212.990814 350.784424,213.818283 
	C349.949982,213.857162 349.252808,213.551056 348.317993,213.064682 
z"/>
<path fill="#6F6F6F" opacity="1.000000" stroke="none" 
	d="
M176.795853,294.176392 
	C176.628708,293.670837 176.679077,293.080872 176.913757,292.244751 
	C177.069824,292.696411 177.041595,293.394196 176.795853,294.176392 
z"/>
<path fill="#6F6F6F" opacity="1.000000" stroke="none" 
	d="
M171.622681,303.078674 
	C171.534393,302.439026 171.744476,301.687958 172.216278,300.784729 
	C172.292358,301.410828 172.106705,302.189056 171.622681,303.078674 
z"/>
<path fill="#ABABAB" opacity="1.000000" stroke="none" 
	d="
M274.957092,153.964111 
	C275.051025,154.298645 275.144928,154.633179 275.217773,155.231110 
	C274.466583,155.288162 273.736450,155.081787 272.799255,154.652130 
	C273.120239,154.274506 273.648224,154.120148 274.582886,153.979462 
	C274.989532,153.993149 274.957123,153.964111 274.957092,153.964111 
z"/>
<path fill="#6F6F6F" opacity="1.000000" stroke="none" 
	d="
M172.571686,344.073212 
	C172.097717,343.668243 171.750992,342.981995 171.496597,342.011841 
	C171.958939,342.415985 172.328949,343.103943 172.571686,344.073212 
z"/>
<path fill="#6F6F6F" opacity="1.000000" stroke="none" 
	d="
M179.320480,364.807312 
	C178.846893,364.478546 178.509293,363.962250 178.230408,363.135742 
	C178.678253,363.423615 179.067352,364.021698 179.320480,364.807312 
z"/>
<path fill="#6F6F6F" opacity="1.000000" stroke="none" 
	d="
M177.967865,288.158020 
	C177.750336,287.673737 177.726151,287.075195 177.901947,286.237549 
	C178.121674,286.680206 178.141434,287.362000 177.967865,288.158020 
z"/>
<path fill="#8C8C8C" opacity="1.000000" stroke="none" 
	d="
M346.173950,282.743835 
	C346.392181,283.263458 346.397186,283.887085 346.175720,284.757385 
	C345.953064,284.285309 345.956909,283.566589 346.173950,282.743835 
z"/>
<path fill="#6F6F6F" opacity="1.000000" stroke="none" 
	d="
M178.592102,284.150146 
	C178.308197,283.642853 178.255951,283.087646 178.367310,282.139465 
	C178.628510,282.531708 178.726120,283.316956 178.592102,284.150146 
z"/>
<path fill="#6F6F6F" opacity="1.000000" stroke="none" 
	d="
M178.209534,278.838165 
	C177.841827,278.426086 177.628052,277.854187 177.557037,277.000183 
	C177.921021,277.371521 178.142242,278.024902 178.209534,278.838165 
z"/>
<path fill="#8C8C8C" opacity="1.000000" stroke="none" 
	d="
M349.992157,258.864777 
	C350.203339,259.390778 350.228027,260.135132 350.049744,261.087860 
	C349.833069,260.558533 349.819366,259.820831 349.992157,258.864777 
z"/>
<path fill="#6F6F6F" opacity="1.000000" stroke="none" 
	d="
M178.276337,254.822433 
	C177.841919,254.453461 177.564148,253.910461 177.363007,253.065552 
	C177.770752,253.391891 178.101852,254.020157 178.276337,254.822433 
z"/>
<path fill="#8C8C8C" opacity="1.000000" stroke="none" 
	d="
M357.389404,235.978485 
	C357.040649,233.981537 357.078217,231.959076 357.496094,229.968475 
	C357.842804,231.984558 357.809265,233.968765 357.389404,235.978485 
z"/>
<path fill="#ABABAB" opacity="1.000000" stroke="none" 
	d="
M275.002289,154.010559 
	C275.316833,153.792740 275.616394,153.554276 275.930420,153.336655 
	C275.940704,153.329514 276.098206,153.534821 276.187103,153.641083 
	C275.924408,153.733505 275.661713,153.825928 275.178070,153.941223 
	C274.957123,153.964111 274.989532,153.993149 275.002289,154.010559 
z"/>
<path fill="#6F6F6F" opacity="1.000000" stroke="none" 
	d="
M180.015747,214.000183 
	C179.742096,213.794067 179.454727,213.592041 179.167328,213.390015 
	C179.136536,213.444473 179.105728,213.498932 179.074921,213.553375 
	C179.334473,213.531235 179.593994,213.509094 179.945770,213.242157 
	C180.037994,212.997391 180.003250,212.987656 179.787872,213.241333 
	C179.708939,213.672501 179.845367,213.849991 179.981781,214.027481 
	C179.981781,214.027481 180.001999,214.004272 180.015747,214.000183 
z"/>
<path fill="#707070" opacity="1.000000" stroke="none" 
	d="
M218.810272,168.790863 
	C219.412643,169.053375 220.057846,169.399246 220.703033,169.745117 
	C220.546631,169.983871 220.390213,170.222626 220.233795,170.461380 
	C219.797394,170.098419 219.360992,169.735458 218.808044,169.075836 
	C218.691513,168.779190 218.853073,168.874252 218.810272,168.790863 
z"/>
<path fill="#000000" opacity="1.000000" stroke="none" 
	d="
M201.267242,175.263840 
	C201.535965,175.313919 201.565247,175.600723 201.594528,175.887527 
	C201.405624,175.758545 201.216721,175.629562 201.267242,175.263840 
z"/>
<path fill="#8C8C8C" opacity="1.000000" stroke="none" 
	d="
M354.661011,229.323822 
	C354.507904,229.116318 354.528259,228.779648 354.548645,228.442993 
	C354.643921,228.693558 354.739227,228.944122 354.661011,229.323822 
z"/>
<path fill="#FDFDFD" opacity="1.000000" stroke="none" 
	d="
M180.378006,214.123199 
	C179.845367,213.849991 179.708939,213.672501 179.775360,213.227386 
	C180.243561,213.379486 180.508896,213.799210 180.378006,214.123199 
z"/>
</svg>